<?xml version="1.0" encoding="UTF-8"?>
<svg width="65px" height="65px" viewBox="0 0 65 65" version="1.1" xmlns="http://www.w3.org/2000/svg" xmlns:xlink="http://www.w3.org/1999/xlink">
    <!-- Generator: Sketch 63.1 (92452) - https://sketch.com -->
    <title>Group 3</title>
    <desc>Created with Sketch.</desc>
    <g id="Page-1" stroke="none" stroke-width="1" fill="none" fill-rule="evenodd">
        <g id="Group-3">
            <path d="M58.24,0 L6.825,0 C3.055,0 2.84217094e-14,3.055 2.84217094e-14,6.825 L2.84217094e-14,58.11 C2.84217094e-14,61.945 3.055,65 6.825,65 L58.175,65 C61.88,65 65,61.945 65,58.175 L65,6.825 C65.065,3.055 62.01,0 58.24,0 Z" id="Path" fill="#4370FF" fill-rule="nonzero"></path>
            <path d="M14.4166667,21 L20.0555556,21 C20.816219,21 21.5324908,21.3585342 21.9888889,21.9677419 L22.9555556,23.2580645 C23.4119536,23.8672722 24.1282254,24.2258065 24.8888889,24.2258065 L38.5833333,24.2258065 C39.9180215,24.2258065 41,25.3089885 41,26.6451613 L41,43.5806452 C41,44.9168179 39.9180215,46 38.5833333,46 L14.4166667,46 C13.0819785,46 12,44.9168179 12,43.5806452 L12,23.4193548 C12,22.0831821 13.0819785,21 14.4166667,21 Z" id="Path" fill="#FFFFFF" fill-rule="nonzero"></path>
            <path d="M55,31.6568542 L55,37.2426407 C55,37.7949254 54.5522847,38.2426407 54,38.2426407 L48.4142136,38.2426407 C47.8619288,38.2426407 47.4142136,37.7949254 47.4142136,37.2426407 C47.4142136,36.9774242 47.5195704,36.7230703 47.7071068,36.5355339 L53.2928932,30.9497475 C53.6834175,30.5592232 54.3165825,30.5592232 54.7071068,30.9497475 C54.8946432,31.1372838 55,31.3916378 55,31.6568542 Z" id="Rectangle" fill="#FFFFFF" transform="translate(50.500000, 33.742641) rotate(45.000000) translate(-50.500000, -33.742641) "></path>
        </g>
    </g>
</svg>